<svg width="42" height="42" viewBox="0 0 42 42" fill="none" xmlns="http://www.w3.org/2000/svg">
<path d="M17.2829 8.73041C16.9777 7.88201 16.6697 7.02661 16.6641 7.01541C16.5171 6.68641 16.1769 6.47921 15.8185 6.51561C15.5917 6.53381 10.2255 6.99581 6.7871 9.76081C4.9895 11.4212 1.3999 21.1288 1.3999 29.5218C1.3999 29.6702 1.4377 29.8144 1.5119 29.9432C3.9913 34.2972 10.7505 35.4368 12.2905 35.4858C12.3003 35.4872 12.3087 35.4872 12.3171 35.4872C12.5887 35.4872 12.8435 35.357 13.0059 35.1372L14.6719 32.8804C11.9195 32.4618 11.4225 31.9158 11.3063 31.8304C10.6847 31.3726 10.2255 30.7314 10.7827 29.9222C11.2111 29.2936 12.1099 29.0864 12.7987 29.4406C13.5043 29.7696 15.3929 30.828 20.9999 30.8C26.5677 30.7832 29.0121 29.617 29.0471 29.5918C29.9823 29.1704 30.7117 29.344 31.1667 29.9684C31.7085 30.8182 31.3221 31.3936 30.7033 31.85C30.5871 31.9354 30.3057 32.1748 27.3489 32.8748L28.9939 35.1358C29.1549 35.357 29.4111 35.4858 29.6827 35.4858C29.6925 35.4858 29.7009 35.4858 29.7093 35.4844C31.2507 35.4354 38.0099 34.2958 40.4879 29.9418C40.5621 29.813 40.5999 29.6688 40.5999 29.5204C40.5999 21.1288 37.0103 11.4212 35.1679 9.72441C31.7743 6.99721 26.4081 6.53521 26.1813 6.51561C25.8229 6.48481 25.4827 6.68781 25.3357 7.01541C25.3301 7.02661 25.0305 7.89601 24.7407 8.73461C24.7407 8.73461 22.4573 8.40001 20.9999 8.40001C19.5425 8.40001 17.2829 8.73041 17.2829 8.73041ZM15.3999 26.6C13.8529 26.6 12.5999 24.7338 12.5999 22.4294C12.5999 20.125 13.8529 18.2588 15.3999 18.2588C16.9525 18.0278 18.1663 20.125 18.1999 22.4294C18.1999 24.7338 16.9469 26.6 15.3999 26.6ZM26.5999 26.6C25.0529 26.6 23.7999 24.7212 23.7999 22.4042C23.7999 20.0872 25.0529 18.2084 26.5999 18.2084C28.1469 18.2084 29.3999 20.0872 29.3999 22.4042C29.3999 24.7212 28.1469 26.6 26.5999 26.6Z" fill="#00012F"/>
</svg>
