<svg width="24" height="18" viewBox="0 0 24 18" fill="none" xmlns="http://www.w3.org/2000/svg">
<path d="M9.87678 1.98866C9.70238 1.50386 9.52638 1.01506 9.52318 1.00866C9.43918 0.820664 9.24478 0.702264 9.03998 0.723064C8.91038 0.733464 5.84398 0.997464 3.87918 2.57746C2.85198 3.52626 0.800781 9.07346 0.800781 13.8695C0.800781 13.9543 0.822381 14.0367 0.864781 14.1103C2.28158 16.5983 6.14398 17.2495 7.02398 17.2775C7.02958 17.2783 7.03438 17.2783 7.03918 17.2783C7.19438 17.2783 7.33998 17.2039 7.43278 17.0783L8.38478 15.7887C6.81198 15.5495 6.52798 15.2375 6.46158 15.1887C6.10638 14.9271 5.84398 14.5607 6.16238 14.0983C6.40718 13.7391 6.92078 13.6207 7.31438 13.8231C7.71758 14.0111 8.79678 14.6159 12.0008 14.5999C15.1824 14.5903 16.5792 13.9239 16.5992 13.9095C17.1336 13.6687 17.5504 13.7679 17.8104 14.1247C18.12 14.6103 17.8992 14.9391 17.5456 15.1999C17.4792 15.2487 17.3184 15.3855 15.6288 15.7855L16.5688 17.0775C16.6608 17.2039 16.8072 17.2775 16.9624 17.2775C16.968 17.2775 16.9728 17.2775 16.9776 17.2767C17.8584 17.2487 21.7208 16.5975 23.1368 14.1095C23.1792 14.0359 23.2008 13.9535 23.2008 13.8687C23.2008 9.07346 21.1496 3.52626 20.0968 2.55666C18.1576 0.998264 15.0912 0.734264 14.9616 0.723064C14.7568 0.705464 14.5624 0.821464 14.4784 1.00866C14.4752 1.01506 14.304 1.51186 14.1384 1.99106C14.1384 1.99106 12.8336 1.79986 12.0008 1.79986C11.168 1.79986 9.87678 1.98866 9.87678 1.98866ZM8.80078 12.1999C7.91678 12.1999 7.20078 11.1335 7.20078 9.81666C7.20078 8.49986 7.91678 7.43346 8.80078 7.43346C9.68798 7.30146 10.3816 8.49986 10.4008 9.81666C10.4008 11.1335 9.68478 12.1999 8.80078 12.1999ZM15.2008 12.1999C14.3168 12.1999 13.6008 11.1263 13.6008 9.80226C13.6008 8.47826 14.3168 7.40466 15.2008 7.40466C16.0848 7.40466 16.8008 8.47826 16.8008 9.80226C16.8008 11.1263 16.0848 12.1999 15.2008 12.1999Z" fill="white"/>
</svg>
