<svg width="161" height="19" viewBox="0 0 161 19" fill="none" xmlns="http://www.w3.org/2000/svg">
<path fill-rule="evenodd" clip-rule="evenodd" d="M6.25831 9.42773C3.14186 7.69214 3.14186 4.87818 6.25831 3.14258C9.37476 1.40698 14.4275 1.40698 17.544 3.14258L22.3452 5.81648C22.81 6.07532 22.81 6.49499 22.3452 6.75383C21.8805 7.01268 21.1269 7.01268 20.6621 6.75383L15.8608 4.07993C13.674 2.86202 10.1283 2.86202 7.94143 4.07993C5.75454 5.29784 5.75454 7.27247 7.94143 8.49038L12.7427 11.1643C13.2075 11.4231 13.2075 11.8428 12.7427 12.1016C12.2779 12.3605 11.5244 12.3605 11.0596 12.1016L6.25831 9.42773Z" fill="#00C2FF"/>
<path fill-rule="evenodd" clip-rule="evenodd" d="M16.9286 8.05859C20.045 9.79419 20.045 12.6082 16.9286 14.3437C13.8121 16.0793 8.75937 16.0793 5.64292 14.3437L0.841655 11.6698C0.376874 11.411 0.376874 10.9913 0.841655 10.7325C1.30644 10.4737 2.05999 10.4737 2.52478 10.7325L7.32604 13.4064C9.51293 14.6243 13.0586 14.6243 15.2455 13.4064C17.4323 12.1885 17.4323 10.2139 15.2455 8.99595L10.4442 6.32205C9.97941 6.0632 9.97941 5.64354 10.4442 5.38469C10.909 5.12585 11.6625 5.12585 12.1273 5.38469L16.9286 8.05859Z" fill="#FF6C00"/>
<path d="M33.7365 15.0239C32.8585 15.0239 32.0083 14.888 31.186 14.6161C30.3747 14.3329 29.7357 13.9705 29.2689 13.5287L29.8857 12.2034C30.3302 12.6112 30.897 12.9453 31.586 13.2059C32.2862 13.4551 33.003 13.5797 33.7365 13.5797C34.7033 13.5797 35.4257 13.4154 35.9036 13.0869C36.3814 12.7471 36.6204 12.2997 36.6204 11.7447C36.6204 11.3369 36.487 11.0084 36.2203 10.7592C35.9647 10.4987 35.6424 10.3004 35.2534 10.1645C34.8756 10.0286 34.3366 9.87567 33.6364 9.70576C32.7585 9.49054 32.0472 9.27533 31.5027 9.06011C30.9693 8.84489 30.5081 8.5164 30.1191 8.07464C29.7412 7.62155 29.5523 7.01554 29.5523 6.25662C29.5523 5.6223 29.7135 5.05027 30.0357 4.54054C30.3691 4.03082 30.8692 3.62304 31.536 3.3172C32.2028 3.01137 33.0308 2.85845 34.0199 2.85845C34.7089 2.85845 35.3868 2.94907 36.0536 3.1303C36.7204 3.31154 37.2927 3.57207 37.7706 3.91188L37.2205 5.27115C36.7315 4.95399 36.2092 4.71612 35.6535 4.55754C35.0978 4.38763 34.5533 4.30267 34.0199 4.30267C33.0752 4.30267 32.364 4.47824 31.8861 4.82939C31.4193 5.18053 31.186 5.63362 31.186 6.18866C31.186 6.59644 31.3193 6.93059 31.586 7.19112C31.8528 7.44032 32.1806 7.63854 32.5696 7.7858C32.9696 7.92172 33.5086 8.06898 34.1866 8.22756C35.0645 8.44278 35.7702 8.65799 36.3036 8.87321C36.8371 9.08843 37.2927 9.41692 37.6706 9.85868C38.0595 10.3004 38.254 10.8951 38.254 11.6427C38.254 12.2657 38.0873 12.8377 37.7539 13.3588C37.4205 13.8685 36.9149 14.2763 36.237 14.5821C35.559 14.8766 34.7255 15.0239 33.7365 15.0239Z" fill="white"/>
<path d="M49.3578 5.88282V14.888H47.8408V13.5287C47.5185 13.9931 47.0906 14.3556 46.5572 14.6161C46.0349 14.8653 45.4625 14.9899 44.8402 14.9899C43.6622 14.9899 42.7342 14.6614 42.0563 14.0044C41.3784 13.3361 41.0395 12.3563 41.0395 11.065V5.88282H42.6398V10.8781C42.6398 11.7503 42.8454 12.413 43.2566 12.8661C43.6678 13.3078 44.2568 13.5287 45.0236 13.5287C45.8682 13.5287 46.535 13.2682 47.024 12.7471C47.5129 12.2261 47.7574 11.4898 47.7574 10.5383V5.88282H49.3578Z" fill="white"/>
<path d="M57.7554 5.79787C58.6111 5.79787 59.3779 5.99043 60.0558 6.37556C60.7337 6.76068 61.2616 7.29873 61.6395 7.98969C62.0284 8.68065 62.2229 9.47922 62.2229 10.3854C62.2229 11.2916 62.0284 12.0958 61.6395 12.7981C61.2616 13.4891 60.7337 14.0271 60.0558 14.4122C59.3779 14.7974 58.6111 14.9899 57.7554 14.9899C57.1219 14.9899 56.5385 14.8653 56.005 14.6161C55.4827 14.3669 55.0382 14.0044 54.6714 13.5287V18.1842H53.0711V5.88282H54.6047V7.31005C54.9604 6.81165 55.4105 6.43786 55.955 6.18866C56.4996 5.92813 57.0997 5.79787 57.7554 5.79787ZM57.622 13.5627C58.1888 13.5627 58.6944 13.4324 59.139 13.1719C59.5946 12.9 59.9502 12.5262 60.2058 12.0505C60.4726 11.5634 60.6059 11.0084 60.6059 10.3854C60.6059 9.7624 60.4726 9.21303 60.2058 8.73728C59.9502 8.25021 59.5946 7.87641 59.139 7.61589C58.6944 7.35536 58.1888 7.2251 57.622 7.2251C57.0663 7.2251 56.5607 7.36102 56.105 7.63288C55.6605 7.8934 55.3049 8.26154 55.0382 8.73728C54.7826 9.21303 54.6548 9.7624 54.6548 10.3854C54.6548 11.0084 54.7826 11.5634 55.0382 12.0505C55.2938 12.5262 55.6494 12.9 56.105 13.1719C56.5607 13.4324 57.0663 13.5627 57.622 13.5627Z" fill="white"/>
<path d="M73.0857 10.4364C73.0857 10.561 73.0746 10.7252 73.0524 10.9291H65.8843C65.9843 11.722 66.3233 12.362 66.9012 12.8491C67.4902 13.3248 68.2181 13.5627 69.0849 13.5627C70.1407 13.5627 70.9909 13.2002 71.6354 12.4753L72.5189 13.5287C72.1189 14.0044 71.6188 14.3669 71.0186 14.6161C70.4296 14.8653 69.7684 14.9899 69.0349 14.9899C68.1014 14.9899 67.2735 14.7974 66.5511 14.4122C65.8287 14.0158 65.2675 13.4664 64.8674 12.7641C64.4785 12.0618 64.284 11.2689 64.284 10.3854C64.284 9.5132 64.4729 8.72596 64.8508 8.02367C65.2397 7.32138 65.7676 6.77767 66.4344 6.39255C67.1123 5.99609 67.8736 5.79787 68.7182 5.79787C69.5628 5.79787 70.313 5.99609 70.9686 6.39255C71.6354 6.77767 72.1522 7.32138 72.5189 8.02367C72.8968 8.72596 73.0857 9.53019 73.0857 10.4364ZM68.7182 7.17413C67.9514 7.17413 67.3068 7.412 66.7845 7.88774C66.2733 8.36349 65.9732 8.98648 65.8843 9.75673H71.5521C71.4632 8.99781 71.1576 8.38048 70.6352 7.90473C70.124 7.41766 69.485 7.17413 68.7182 7.17413Z" fill="white"/>
<path d="M77.5083 7.39501C77.7862 6.87395 78.1974 6.4775 78.7419 6.20565C79.2865 5.93379 79.9477 5.79787 80.7256 5.79787V7.37802C80.6367 7.36669 80.5145 7.36103 80.3589 7.36103C79.4921 7.36103 78.8086 7.62721 78.3085 8.15959C77.8195 8.68065 77.575 9.42825 77.575 10.4024V14.888H75.9747V5.88282H77.5083V7.39501Z" fill="white"/>
<path d="M93.4066 2.99438C94.918 2.99438 96.1072 3.36251 96.974 4.09878C97.8408 4.83505 98.2742 5.84884 98.2742 7.14014C98.2742 8.43145 97.8408 9.44524 96.974 10.1815C96.1072 10.9178 94.918 11.2859 93.4066 11.2859H90.5227V14.888H88.8557V2.99438H93.4066ZM93.3566 9.80771C94.4124 9.80771 95.2181 9.58116 95.7738 9.12807C96.3294 8.66366 96.6073 8.00101 96.6073 7.14014C96.6073 6.27927 96.3294 5.6223 95.7738 5.16921C95.2181 4.70479 94.4124 4.47258 93.3566 4.47258H90.5227V9.80771H93.3566Z" fill="white"/>
<path d="M102.544 7.39501C102.822 6.87395 103.233 6.4775 103.777 6.20565C104.322 5.93379 104.983 5.79787 105.761 5.79787V7.37802C105.672 7.36669 105.55 7.36103 105.394 7.36103C104.528 7.36103 103.844 7.62721 103.344 8.15959C102.855 8.68065 102.611 9.42825 102.611 10.4024V14.888H101.01V5.88282H102.544V7.39501Z" fill="white"/>
<path d="M112.103 14.9899C111.225 14.9899 110.436 14.7917 109.736 14.3952C109.036 13.9988 108.486 13.4551 108.086 12.7641C107.697 12.0618 107.502 11.2689 107.502 10.3854C107.502 9.50187 107.697 8.71463 108.086 8.02367C108.486 7.32138 109.036 6.77767 109.736 6.39255C110.436 5.99609 111.225 5.79787 112.103 5.79787C112.981 5.79787 113.764 5.99609 114.453 6.39255C115.154 6.77767 115.698 7.32138 116.087 8.02367C116.487 8.71463 116.687 9.50187 116.687 10.3854C116.687 11.2689 116.487 12.0618 116.087 12.7641C115.698 13.4551 115.154 13.9988 114.453 14.3952C113.764 14.7917 112.981 14.9899 112.103 14.9899ZM112.103 13.5627C112.67 13.5627 113.175 13.4324 113.62 13.1719C114.076 12.9 114.431 12.5262 114.687 12.0505C114.942 11.5634 115.07 11.0084 115.07 10.3854C115.07 9.7624 114.942 9.21303 114.687 8.73728C114.431 8.25021 114.076 7.87641 113.62 7.61589C113.175 7.35536 112.67 7.2251 112.103 7.2251C111.536 7.2251 111.025 7.35536 110.569 7.61589C110.125 7.87641 109.769 8.25021 109.502 8.73728C109.247 9.21303 109.119 9.7624 109.119 10.3854C109.119 11.0084 109.247 11.5634 109.502 12.0505C109.769 12.5262 110.125 12.9 110.569 13.1719C111.025 13.4324 111.536 13.5627 112.103 13.5627Z" fill="white"/>
<path d="M124.535 14.3613C124.301 14.5651 124.013 14.7237 123.668 14.837C123.324 14.9389 122.968 14.9899 122.601 14.9899C121.712 14.9899 121.023 14.7464 120.534 14.2593C120.045 13.7722 119.801 13.0756 119.801 12.1694V7.2251H118.3V5.88282H119.801V3.91188H121.401V5.88282H123.935V7.2251H121.401V12.1015C121.401 12.5885 121.518 12.9623 121.751 13.2229C121.995 13.4834 122.34 13.6137 122.785 13.6137C123.274 13.6137 123.69 13.4721 124.035 13.1889L124.535 14.3613Z" fill="white"/>
<path d="M130.627 14.9899C129.75 14.9899 128.96 14.7917 128.26 14.3952C127.56 13.9988 127.01 13.4551 126.61 12.7641C126.221 12.0618 126.027 11.2689 126.027 10.3854C126.027 9.50187 126.221 8.71463 126.61 8.02367C127.01 7.32138 127.56 6.77767 128.26 6.39255C128.96 5.99609 129.75 5.79787 130.627 5.79787C131.505 5.79787 132.289 5.99609 132.978 6.39255C133.678 6.77767 134.223 7.32138 134.612 8.02367C135.012 8.71463 135.212 9.50187 135.212 10.3854C135.212 11.2689 135.012 12.0618 134.612 12.7641C134.223 13.4551 133.678 13.9988 132.978 14.3952C132.289 14.7917 131.505 14.9899 130.627 14.9899ZM130.627 13.5627C131.194 13.5627 131.7 13.4324 132.144 13.1719C132.6 12.9 132.956 12.5262 133.211 12.0505C133.467 11.5634 133.595 11.0084 133.595 10.3854C133.595 9.7624 133.467 9.21303 133.211 8.73728C132.956 8.25021 132.6 7.87641 132.144 7.61589C131.7 7.35536 131.194 7.2251 130.627 7.2251C130.061 7.2251 129.549 7.35536 129.094 7.61589C128.649 7.87641 128.294 8.25021 128.027 8.73728C127.771 9.21303 127.644 9.7624 127.644 10.3854C127.644 11.0084 127.771 11.5634 128.027 12.0505C128.294 12.5262 128.649 12.9 129.094 13.1719C129.549 13.4324 130.061 13.5627 130.627 13.5627Z" fill="white"/>
<path d="M141.942 14.9899C141.042 14.9899 140.237 14.7917 139.525 14.3952C138.825 13.9988 138.275 13.4551 137.875 12.7641C137.475 12.0618 137.275 11.2689 137.275 10.3854C137.275 9.50187 137.475 8.71463 137.875 8.02367C138.275 7.32138 138.825 6.77767 139.525 6.39255C140.237 5.99609 141.042 5.79787 141.942 5.79787C142.743 5.79787 143.454 5.96211 144.076 6.2906C144.71 6.61909 145.199 7.09483 145.543 7.71783L144.326 8.5164C144.048 8.08597 143.704 7.76314 143.293 7.54792C142.882 7.33271 142.426 7.2251 141.926 7.2251C141.348 7.2251 140.826 7.35536 140.359 7.61589C139.903 7.87641 139.542 8.25021 139.275 8.73728C139.02 9.21303 138.892 9.7624 138.892 10.3854C138.892 11.0197 139.02 11.5804 139.275 12.0675C139.542 12.5432 139.903 12.9114 140.359 13.1719C140.826 13.4324 141.348 13.5627 141.926 13.5627C142.426 13.5627 142.882 13.4551 143.293 13.2399C143.704 13.0246 144.048 12.7018 144.326 12.2714L145.543 13.053C145.199 13.676 144.71 14.1574 144.076 14.4972C143.454 14.8257 142.743 14.9899 141.942 14.9899Z" fill="white"/>
<path d="M151.936 14.9899C151.058 14.9899 150.269 14.7917 149.569 14.3952C148.868 13.9988 148.318 13.4551 147.918 12.7641C147.529 12.0618 147.335 11.2689 147.335 10.3854C147.335 9.50187 147.529 8.71463 147.918 8.02367C148.318 7.32138 148.868 6.77767 149.569 6.39255C150.269 5.99609 151.058 5.79787 151.936 5.79787C152.814 5.79787 153.597 5.99609 154.286 6.39255C154.986 6.77767 155.531 7.32138 155.92 8.02367C156.32 8.71463 156.52 9.50187 156.52 10.3854C156.52 11.2689 156.32 12.0618 155.92 12.7641C155.531 13.4551 154.986 13.9988 154.286 14.3952C153.597 14.7917 152.814 14.9899 151.936 14.9899ZM151.936 13.5627C152.502 13.5627 153.008 13.4324 153.453 13.1719C153.908 12.9 154.264 12.5262 154.52 12.0505C154.775 11.5634 154.903 11.0084 154.903 10.3854C154.903 9.7624 154.775 9.21303 154.52 8.73728C154.264 8.25021 153.908 7.87641 153.453 7.61589C153.008 7.35536 152.502 7.2251 151.936 7.2251C151.369 7.2251 150.858 7.35536 150.402 7.61589C149.958 7.87641 149.602 8.25021 149.335 8.73728C149.08 9.21303 148.952 9.7624 148.952 10.3854C148.952 11.0084 149.08 11.5634 149.335 12.0505C149.602 12.5262 149.958 12.9 150.402 13.1719C150.858 13.4324 151.369 13.5627 151.936 13.5627Z" fill="white"/>
<path d="M159.4 2.28076H161V14.888H159.4V2.28076Z" fill="white"/>
</svg>
