<svg width="161" height="19" viewBox="0 0 161 19" fill="none" xmlns="http://www.w3.org/2000/svg">
<path fill-rule="evenodd" clip-rule="evenodd" d="M6.25831 9.42773C3.14186 7.69214 3.14186 4.87818 6.25831 3.14258C9.37476 1.40698 14.4275 1.40698 17.544 3.14258L22.3452 5.81648C22.81 6.07532 22.81 6.49499 22.3452 6.75383C21.8805 7.01268 21.1269 7.01268 20.6621 6.75383L15.8608 4.07993C13.674 2.86202 10.1283 2.86202 7.94143 4.07993C5.75454 5.29784 5.75454 7.27247 7.94143 8.49038L12.7427 11.1643C13.2075 11.4231 13.2075 11.8428 12.7427 12.1016C12.2779 12.3605 11.5244 12.3605 11.0596 12.1016L6.25831 9.42773Z" fill="#00C2FF"/>
<path fill-rule="evenodd" clip-rule="evenodd" d="M16.9285 8.05859C20.0449 9.79419 20.0449 12.6082 16.9285 14.3437C13.812 16.0793 8.75925 16.0793 5.6428 14.3437L0.841533 11.6698C0.376752 11.411 0.376752 10.9913 0.841533 10.7325C1.30631 10.4737 2.05987 10.4737 2.52465 10.7325L7.32592 13.4064C9.51281 14.6243 13.0585 14.6243 15.2453 13.4064C17.4322 12.1885 17.4322 10.2139 15.2453 8.99595L10.4441 6.32205C9.97929 6.0632 9.97929 5.64354 10.4441 5.38469C10.9089 5.12585 11.6624 5.12585 12.1272 5.38469L16.9285 8.05859Z" fill="#FF6C00"/>
<path d="M33.7366 15.0239C32.8586 15.0239 32.0085 14.888 31.1861 14.6161C30.3748 14.3329 29.7358 13.9705 29.269 13.5287L29.8858 12.2034C30.3304 12.6112 30.8971 12.9453 31.5862 13.2059C32.2863 13.4551 33.0031 13.5797 33.7366 13.5797C34.7034 13.5797 35.4258 13.4154 35.9037 13.0869C36.3815 12.7471 36.6205 12.2997 36.6205 11.7447C36.6205 11.3369 36.4871 11.0084 36.2204 10.7592C35.9648 10.4987 35.6425 10.3004 35.2536 10.1645C34.8757 10.0286 34.3367 9.87567 33.6366 9.70576C32.7586 9.49054 32.0474 9.27533 31.5028 9.06011C30.9694 8.84489 30.5082 8.5164 30.1192 8.07464C29.7414 7.62155 29.5524 7.01554 29.5524 6.25662C29.5524 5.6223 29.7136 5.05027 30.0359 4.54054C30.3693 4.03082 30.8694 3.62304 31.5362 3.3172C32.203 3.01137 33.0309 2.85845 34.02 2.85845C34.709 2.85845 35.3869 2.94907 36.0537 3.1303C36.7205 3.31154 37.2928 3.57207 37.7707 3.91188L37.2206 5.27115C36.7316 4.95399 36.2093 4.71612 35.6536 4.55754C35.098 4.38763 34.5534 4.30267 34.02 4.30267C33.0753 4.30267 32.3641 4.47824 31.8862 4.82939C31.4195 5.18053 31.1861 5.63362 31.1861 6.18866C31.1861 6.59644 31.3194 6.93059 31.5862 7.19112C31.8529 7.44032 32.1807 7.63854 32.5697 7.7858C32.9698 7.92172 33.5088 8.06898 34.1867 8.22756C35.0646 8.44278 35.7703 8.65799 36.3038 8.87321C36.8372 9.08843 37.2928 9.41692 37.6707 9.85868C38.0597 10.3004 38.2541 10.8951 38.2541 11.6427C38.2541 12.2657 38.0874 12.8377 37.754 13.3588C37.4206 13.8685 36.915 14.2763 36.2371 14.5821C35.5592 14.8766 34.7257 15.0239 33.7366 15.0239Z" fill="#00012F"/>
<path d="M49.3579 5.88282V14.888H47.8409V13.5287C47.5186 13.9931 47.0908 14.3556 46.5573 14.6161C46.035 14.8653 45.4627 14.9899 44.8403 14.9899C43.6623 14.9899 42.7344 14.6614 42.0564 14.0044C41.3785 13.3361 41.0396 12.3563 41.0396 11.065V5.88282H42.6399V10.8781C42.6399 11.7503 42.8455 12.413 43.2567 12.8661C43.6679 13.3078 44.2569 13.5287 45.0237 13.5287C45.8683 13.5287 46.5351 13.2682 47.0241 12.7471C47.5131 12.2261 47.7576 11.4898 47.7576 10.5383V5.88282H49.3579Z" fill="#00012F"/>
<path d="M57.7555 5.79787C58.6112 5.79787 59.378 5.99043 60.0559 6.37556C60.7339 6.76068 61.2617 7.29873 61.6396 7.98969C62.0285 8.68065 62.223 9.47922 62.223 10.3854C62.223 11.2916 62.0285 12.0958 61.6396 12.7981C61.2617 13.4891 60.7339 14.0271 60.0559 14.4122C59.378 14.7974 58.6112 14.9899 57.7555 14.9899C57.122 14.9899 56.5386 14.8653 56.0051 14.6161C55.4828 14.3669 55.0383 14.0044 54.6715 13.5287V18.1842H53.0712V5.88282H54.6049V7.31005C54.9605 6.81165 55.4106 6.43786 55.9551 6.18866C56.4997 5.92813 57.0998 5.79787 57.7555 5.79787ZM57.6221 13.5627C58.1889 13.5627 58.6946 13.4324 59.1391 13.1719C59.5947 12.9 59.9504 12.5262 60.206 12.0505C60.4727 11.5634 60.606 11.0084 60.606 10.3854C60.606 9.7624 60.4727 9.21303 60.206 8.73728C59.9504 8.25021 59.5947 7.87641 59.1391 7.61589C58.6946 7.35536 58.1889 7.2251 57.6221 7.2251C57.0665 7.2251 56.5608 7.36102 56.1052 7.63288C55.6606 7.8934 55.305 8.26154 55.0383 8.73728C54.7827 9.21303 54.6549 9.7624 54.6549 10.3854C54.6549 11.0084 54.7827 11.5634 55.0383 12.0505C55.2939 12.5262 55.6495 12.9 56.1052 13.1719C56.5608 13.4324 57.0665 13.5627 57.6221 13.5627Z" fill="#00012F"/>
<path d="M73.0858 10.4364C73.0858 10.561 73.0747 10.7252 73.0525 10.9291H65.8844C65.9844 11.722 66.3234 12.362 66.9013 12.8491C67.4903 13.3248 68.2182 13.5627 69.0851 13.5627C70.1408 13.5627 70.991 13.2002 71.6356 12.4753L72.5191 13.5287C72.119 14.0044 71.6189 14.3669 71.0188 14.6161C70.4298 14.8653 69.7685 14.9899 69.035 14.9899C68.1015 14.9899 67.2736 14.7974 66.5512 14.4122C65.8289 14.0158 65.2676 13.4664 64.8676 12.7641C64.4786 12.0618 64.2841 11.2689 64.2841 10.3854C64.2841 9.5132 64.473 8.72596 64.8509 8.02367C65.2399 7.32138 65.7677 6.77767 66.4345 6.39255C67.1124 5.99609 67.8737 5.79787 68.7183 5.79787C69.5629 5.79787 70.3131 5.99609 70.9688 6.39255C71.6356 6.77767 72.1523 7.32138 72.5191 8.02367C72.8969 8.72596 73.0858 9.53019 73.0858 10.4364ZM68.7183 7.17413C67.9515 7.17413 67.3069 7.412 66.7846 7.88774C66.2734 8.36349 65.9733 8.98648 65.8844 9.75673H71.5522C71.4633 8.99781 71.1577 8.38048 70.6354 7.90473C70.1241 7.41766 69.4851 7.17413 68.7183 7.17413Z" fill="#00012F"/>
<path d="M77.5085 7.39501C77.7863 6.87395 78.1975 6.4775 78.742 6.20565C79.2866 5.93379 79.9478 5.79787 80.7257 5.79787V7.37802C80.6368 7.36669 80.5146 7.36103 80.359 7.36103C79.4922 7.36103 78.8087 7.62721 78.3086 8.15959C77.8196 8.68065 77.5751 9.42825 77.5751 10.4024V14.888H75.9748V5.88282H77.5085V7.39501Z" fill="#00012F"/>
<path d="M93.4067 2.99438C94.9182 2.99438 96.1073 3.36251 96.9741 4.09878C97.841 4.83505 98.2744 5.84884 98.2744 7.14014C98.2744 8.43145 97.841 9.44524 96.9741 10.1815C96.1073 10.9178 94.9182 11.2859 93.4067 11.2859H90.5229V14.888H88.8559V2.99438H93.4067ZM93.3567 9.80771C94.4125 9.80771 95.2182 9.58116 95.7739 9.12807C96.3295 8.66366 96.6074 8.00101 96.6074 7.14014C96.6074 6.27927 96.3295 5.6223 95.7739 5.16921C95.2182 4.70479 94.4125 4.47258 93.3567 4.47258H90.5229V9.80771H93.3567Z" fill="#00012F"/>
<path d="M102.544 7.39501C102.822 6.87395 103.233 6.4775 103.778 6.20565C104.322 5.93379 104.983 5.79787 105.761 5.79787V7.37802C105.672 7.36669 105.55 7.36103 105.395 7.36103C104.528 7.36103 103.844 7.62721 103.344 8.15959C102.855 8.68065 102.611 9.42825 102.611 10.4024V14.888H101.01V5.88282H102.544V7.39501Z" fill="#00012F"/>
<path d="M112.103 14.9899C111.225 14.9899 110.436 14.7917 109.736 14.3952C109.036 13.9988 108.486 13.4551 108.086 12.7641C107.697 12.0618 107.502 11.2689 107.502 10.3854C107.502 9.50187 107.697 8.71463 108.086 8.02367C108.486 7.32138 109.036 6.77767 109.736 6.39255C110.436 5.99609 111.225 5.79787 112.103 5.79787C112.981 5.79787 113.765 5.99609 114.454 6.39255C115.154 6.77767 115.698 7.32138 116.087 8.02367C116.487 8.71463 116.687 9.50187 116.687 10.3854C116.687 11.2689 116.487 12.0618 116.087 12.7641C115.698 13.4551 115.154 13.9988 114.454 14.3952C113.765 14.7917 112.981 14.9899 112.103 14.9899ZM112.103 13.5627C112.67 13.5627 113.176 13.4324 113.62 13.1719C114.076 12.9 114.431 12.5262 114.687 12.0505C114.943 11.5634 115.07 11.0084 115.07 10.3854C115.07 9.7624 114.943 9.21303 114.687 8.73728C114.431 8.25021 114.076 7.87641 113.62 7.61589C113.176 7.35536 112.67 7.2251 112.103 7.2251C111.536 7.2251 111.025 7.35536 110.569 7.61589C110.125 7.87641 109.769 8.25021 109.503 8.73728C109.247 9.21303 109.119 9.7624 109.119 10.3854C109.119 11.0084 109.247 11.5634 109.503 12.0505C109.769 12.5262 110.125 12.9 110.569 13.1719C111.025 13.4324 111.536 13.5627 112.103 13.5627Z" fill="#00012F"/>
<path d="M124.535 14.3613C124.302 14.5651 124.013 14.7237 123.668 14.837C123.324 14.9389 122.968 14.9899 122.601 14.9899C121.712 14.9899 121.023 14.7464 120.534 14.2593C120.045 13.7722 119.801 13.0756 119.801 12.1694V7.2251H118.3V5.88282H119.801V3.91188H121.401V5.88282H123.935V7.2251H121.401V12.1015C121.401 12.5885 121.518 12.9623 121.751 13.2229C121.996 13.4834 122.34 13.6137 122.785 13.6137C123.274 13.6137 123.69 13.4721 124.035 13.1889L124.535 14.3613Z" fill="#00012F"/>
<path d="M130.628 14.9899C129.75 14.9899 128.961 14.7917 128.26 14.3952C127.56 13.9988 127.01 13.4551 126.61 12.7641C126.221 12.0618 126.027 11.2689 126.027 10.3854C126.027 9.50187 126.221 8.71463 126.61 8.02367C127.01 7.32138 127.56 6.77767 128.26 6.39255C128.961 5.99609 129.75 5.79787 130.628 5.79787C131.506 5.79787 132.289 5.99609 132.978 6.39255C133.678 6.77767 134.223 7.32138 134.612 8.02367C135.012 8.71463 135.212 9.50187 135.212 10.3854C135.212 11.2689 135.012 12.0618 134.612 12.7641C134.223 13.4551 133.678 13.9988 132.978 14.3952C132.289 14.7917 131.506 14.9899 130.628 14.9899ZM130.628 13.5627C131.194 13.5627 131.7 13.4324 132.145 13.1719C132.6 12.9 132.956 12.5262 133.211 12.0505C133.467 11.5634 133.595 11.0084 133.595 10.3854C133.595 9.7624 133.467 9.21303 133.211 8.73728C132.956 8.25021 132.6 7.87641 132.145 7.61589C131.7 7.35536 131.194 7.2251 130.628 7.2251C130.061 7.2251 129.55 7.35536 129.094 7.61589C128.649 7.87641 128.294 8.25021 128.027 8.73728C127.771 9.21303 127.644 9.7624 127.644 10.3854C127.644 11.0084 127.771 11.5634 128.027 12.0505C128.294 12.5262 128.649 12.9 129.094 13.1719C129.55 13.4324 130.061 13.5627 130.628 13.5627Z" fill="#00012F"/>
<path d="M141.943 14.9899C141.042 14.9899 140.237 14.7917 139.525 14.3952C138.825 13.9988 138.275 13.4551 137.875 12.7641C137.475 12.0618 137.275 11.2689 137.275 10.3854C137.275 9.50187 137.475 8.71463 137.875 8.02367C138.275 7.32138 138.825 6.77767 139.525 6.39255C140.237 5.99609 141.042 5.79787 141.943 5.79787C142.743 5.79787 143.454 5.96211 144.076 6.2906C144.71 6.61909 145.199 7.09483 145.543 7.71783L144.326 8.5164C144.049 8.08597 143.704 7.76314 143.293 7.54792C142.882 7.33271 142.426 7.2251 141.926 7.2251C141.348 7.2251 140.826 7.35536 140.359 7.61589C139.903 7.87641 139.542 8.25021 139.275 8.73728C139.02 9.21303 138.892 9.7624 138.892 10.3854C138.892 11.0197 139.02 11.5804 139.275 12.0675C139.542 12.5432 139.903 12.9114 140.359 13.1719C140.826 13.4324 141.348 13.5627 141.926 13.5627C142.426 13.5627 142.882 13.4551 143.293 13.2399C143.704 13.0246 144.049 12.7018 144.326 12.2714L145.543 13.053C145.199 13.676 144.71 14.1574 144.076 14.4972C143.454 14.8257 142.743 14.9899 141.943 14.9899Z" fill="#00012F"/>
<path d="M151.936 14.9899C151.058 14.9899 150.269 14.7917 149.569 14.3952C148.869 13.9988 148.318 13.4551 147.918 12.7641C147.529 12.0618 147.335 11.2689 147.335 10.3854C147.335 9.50187 147.529 8.71463 147.918 8.02367C148.318 7.32138 148.869 6.77767 149.569 6.39255C150.269 5.99609 151.058 5.79787 151.936 5.79787C152.814 5.79787 153.597 5.99609 154.286 6.39255C154.986 6.77767 155.531 7.32138 155.92 8.02367C156.32 8.71463 156.52 9.50187 156.52 10.3854C156.52 11.2689 156.32 12.0618 155.92 12.7641C155.531 13.4551 154.986 13.9988 154.286 14.3952C153.597 14.7917 152.814 14.9899 151.936 14.9899ZM151.936 13.5627C152.503 13.5627 153.008 13.4324 153.453 13.1719C153.908 12.9 154.264 12.5262 154.52 12.0505C154.775 11.5634 154.903 11.0084 154.903 10.3854C154.903 9.7624 154.775 9.21303 154.52 8.73728C154.264 8.25021 153.908 7.87641 153.453 7.61589C153.008 7.35536 152.503 7.2251 151.936 7.2251C151.369 7.2251 150.858 7.35536 150.402 7.61589C149.958 7.87641 149.602 8.25021 149.335 8.73728C149.08 9.21303 148.952 9.7624 148.952 10.3854C148.952 11.0084 149.08 11.5634 149.335 12.0505C149.602 12.5262 149.958 12.9 150.402 13.1719C150.858 13.4324 151.369 13.5627 151.936 13.5627Z" fill="#00012F"/>
<path d="M159.4 2.28076H161V14.888H159.4V2.28076Z" fill="#00012F"/>
</svg>
