<svg width="24" height="21" viewBox="0 0 24 21" fill="none" xmlns="http://www.w3.org/2000/svg">
<path d="M7.539 20.4991C16.596 20.4991 21.5505 12.9946 21.5505 6.49809C21.5505 6.28809 21.5505 6.07509 21.5415 5.86509C22.5061 5.16682 23.3386 4.30231 24 3.31209C23.099 3.70936 22.1441 3.9712 21.1665 4.08909C22.1963 3.47354 22.9676 2.50504 23.337 1.36359C22.3695 1.93677 21.3105 2.33915 20.2065 2.55309C19.4643 1.76262 18.4821 1.23896 17.4121 1.06322C16.3421 0.887482 15.2441 1.06947 14.288 1.58099C13.3319 2.09252 12.5712 2.90503 12.1237 3.89268C11.6761 4.88032 11.5668 5.98799 11.8125 7.04409C9.85461 6.94591 7.93922 6.43729 6.19056 5.5512C4.4419 4.66511 2.89903 3.42135 1.662 1.90059C1.03401 2.98521 0.842361 4.26819 1.12597 5.48899C1.40958 6.70978 2.14718 7.77688 3.189 8.47359C2.40831 8.44706 1.64478 8.23743 0.96 7.86159V7.92909C0.961346 9.06531 1.35496 10.1662 2.07431 11.0457C2.79366 11.9252 3.79462 12.5294 4.908 12.7561C4.48539 12.8725 4.04884 12.9305 3.6105 12.9286C3.30148 12.9295 2.99307 12.9009 2.6895 12.8431C3.00418 13.8212 3.61691 14.6763 4.44187 15.2888C5.26683 15.9013 6.2627 16.2404 7.29 16.2586C5.54483 17.6293 3.3891 18.3727 1.17 18.3691C0.778981 18.3707 0.388235 18.3482 0 18.3016C2.25227 19.7375 4.86795 20.4999 7.539 20.4991Z" fill="white"/>
</svg>
