<svg width="151" height="45" viewBox="0 0 151 45" fill="none" xmlns="http://www.w3.org/2000/svg">
<path fill-rule="evenodd" clip-rule="evenodd" d="M18.6356 23.0117C14.3345 20.6163 14.3345 16.7326 18.6356 14.3372C22.9368 11.9418 29.9104 11.9418 34.2116 14.3372L40.8381 18.0276C41.4796 18.3848 41.4796 18.964 40.8381 19.3213C40.1966 19.6785 39.1566 19.6785 38.5151 19.3213L31.8886 15.6309C28.8704 13.95 23.9768 13.95 20.9586 15.6309C17.9404 17.3118 17.9404 20.0371 20.9586 21.718L27.5851 25.4084C28.2266 25.7656 28.2266 26.3448 27.5851 26.7021C26.9436 27.0593 25.9036 27.0593 25.2621 26.7021L18.6356 23.0117Z" fill="#00C2FF"/>
<path fill-rule="evenodd" clip-rule="evenodd" d="M33.3639 21.1221C37.6651 23.5175 37.6651 27.4012 33.3639 29.7966C29.0627 32.192 22.0891 32.192 17.7879 29.7966L11.1614 26.1062C10.5199 25.749 10.5199 25.1697 11.1614 24.8125C11.8029 24.4553 12.8429 24.4553 13.4844 24.8125L20.1109 28.5029C23.1291 30.1838 28.0227 30.1838 31.0409 28.5029C34.0592 26.822 34.0592 24.0967 31.0409 22.4158L24.4144 18.7254C23.7729 18.3682 23.7729 17.789 24.4144 17.4317C25.0559 17.0745 26.0959 17.0745 26.7374 17.4317L33.3639 21.1221Z" fill="#FF6C00"/>
<path d="M49.3835 17.6229C49.0155 17.6229 48.6848 17.5589 48.3915 17.4309C48.1035 17.2976 47.8768 17.1162 47.7115 16.8869C47.5462 16.6522 47.4608 16.3829 47.4555 16.0789H48.2315C48.2582 16.3402 48.3648 16.5616 48.5515 16.7429C48.7435 16.9189 49.0208 17.0069 49.3835 17.0069C49.7302 17.0069 50.0022 16.9216 50.1995 16.7509C50.4022 16.5749 50.5035 16.3509 50.5035 16.0789C50.5035 15.8656 50.4448 15.6922 50.3275 15.5589C50.2102 15.4256 50.0635 15.3242 49.8875 15.2549C49.7115 15.1856 49.4742 15.1109 49.1755 15.0309C48.8075 14.9349 48.5115 14.8389 48.2875 14.7429C48.0688 14.6469 47.8795 14.4976 47.7195 14.2949C47.5648 14.0869 47.4875 13.8096 47.4875 13.4629C47.4875 13.1589 47.5648 12.8896 47.7195 12.6549C47.8742 12.4202 48.0902 12.2389 48.3675 12.1109C48.6502 11.9829 48.9728 11.9189 49.3355 11.9189C49.8582 11.9189 50.2848 12.0496 50.6155 12.3109C50.9515 12.5722 51.1408 12.9189 51.1835 13.3509H50.3835C50.3568 13.1376 50.2448 12.9509 50.0475 12.7909C49.8502 12.6256 49.5888 12.5429 49.2635 12.5429C48.9595 12.5429 48.7115 12.6229 48.5195 12.7829C48.3275 12.9376 48.2315 13.1562 48.2315 13.4389C48.2315 13.6416 48.2875 13.8069 48.3995 13.9349C48.5168 14.0629 48.6582 14.1616 48.8235 14.2309C48.9942 14.2949 49.2315 14.3696 49.5355 14.4549C49.9035 14.5562 50.1995 14.6576 50.4235 14.7589C50.6475 14.8549 50.8395 15.0069 50.9995 15.2149C51.1595 15.4176 51.2395 15.6949 51.2395 16.0469C51.2395 16.3189 51.1675 16.5749 51.0235 16.8149C50.8795 17.0549 50.6662 17.2496 50.3835 17.3989C50.1008 17.5482 49.7675 17.6229 49.3835 17.6229ZM56.3108 15.2069C56.3108 15.3456 56.3028 15.4922 56.2868 15.6469H52.7828C52.8095 16.0789 52.9562 16.4176 53.2228 16.6629C53.4948 16.9029 53.8228 17.0229 54.2068 17.0229C54.5215 17.0229 54.7828 16.9509 54.9908 16.8069C55.2042 16.6576 55.3535 16.4602 55.4388 16.2149H56.2228C56.1055 16.6362 55.8708 16.9802 55.5188 17.2469C55.1668 17.5082 54.7295 17.6389 54.2068 17.6389C53.7908 17.6389 53.4175 17.5456 53.0868 17.3589C52.7615 17.1722 52.5055 16.9082 52.3188 16.5669C52.1322 16.2202 52.0388 15.8202 52.0388 15.3669C52.0388 14.9136 52.1295 14.5162 52.3108 14.1749C52.4922 13.8336 52.7455 13.5722 53.0708 13.3909C53.4015 13.2042 53.7802 13.1109 54.2068 13.1109C54.6228 13.1109 54.9908 13.2016 55.3108 13.3829C55.6308 13.5642 55.8762 13.8149 56.0468 14.1349C56.2228 14.4496 56.3108 14.8069 56.3108 15.2069ZM55.5588 15.0549C55.5588 14.7776 55.4975 14.5402 55.3748 14.3429C55.2522 14.1402 55.0842 13.9882 54.8708 13.8869C54.6628 13.7802 54.4308 13.7269 54.1748 13.7269C53.8068 13.7269 53.4922 13.8442 53.2308 14.0789C52.9748 14.3136 52.8282 14.6389 52.7908 15.0549H55.5588ZM56.9998 15.3669C56.9998 14.9136 57.0904 14.5189 57.2718 14.1829C57.4531 13.8416 57.7038 13.5776 58.0238 13.3909C58.3491 13.2042 58.7198 13.1109 59.1358 13.1109C59.6744 13.1109 60.1171 13.2416 60.4638 13.5029C60.8158 13.7642 61.0478 14.1269 61.1598 14.5909H60.3758C60.3011 14.3242 60.1544 14.1136 59.9358 13.9589C59.7224 13.8042 59.4558 13.7269 59.1358 13.7269C58.7198 13.7269 58.3838 13.8709 58.1278 14.1589C57.8718 14.4416 57.7438 14.8442 57.7438 15.3669C57.7438 15.8949 57.8718 16.3029 58.1278 16.5909C58.3838 16.8789 58.7198 17.0229 59.1358 17.0229C59.4558 17.0229 59.7224 16.9482 59.9358 16.7989C60.1491 16.6496 60.2958 16.4362 60.3758 16.1589H61.1598C61.0424 16.6069 60.8078 16.9669 60.4558 17.2389C60.1038 17.5056 59.6638 17.6389 59.1358 17.6389C58.7198 17.6389 58.3491 17.5456 58.0238 17.3589C57.7038 17.1722 57.4531 16.9082 57.2718 16.5669C57.0904 16.2256 56.9998 15.8256 56.9998 15.3669ZM66.0191 13.1829V17.5669H65.2911V16.9189C65.1525 17.1429 64.9578 17.3189 64.7071 17.4469C64.4618 17.5696 64.1898 17.6309 63.8911 17.6309C63.5498 17.6309 63.2431 17.5616 62.9711 17.4229C62.6991 17.2789 62.4831 17.0656 62.3231 16.7829C62.1685 16.5002 62.0911 16.1562 62.0911 15.7509V13.1829H62.8111V15.6549C62.8111 16.0869 62.9205 16.4202 63.1391 16.6549C63.3578 16.8842 63.6565 16.9989 64.0351 16.9989C64.4245 16.9989 64.7311 16.8789 64.9551 16.6389C65.1791 16.3989 65.2911 16.0496 65.2911 15.5909V13.1829H66.0191ZM67.9763 13.8949C68.1043 13.6442 68.2857 13.4496 68.5203 13.3109C68.7603 13.1722 69.051 13.1029 69.3923 13.1029V13.8549H69.2003C68.3843 13.8549 67.9763 14.2976 67.9763 15.1829V17.5669H67.2483V13.1829H67.9763V13.8949ZM74.2327 15.2069C74.2327 15.3456 74.2247 15.4922 74.2087 15.6469H70.7047C70.7314 16.0789 70.878 16.4176 71.1447 16.6629C71.4167 16.9029 71.7447 17.0229 72.1287 17.0229C72.4434 17.0229 72.7047 16.9509 72.9127 16.8069C73.126 16.6576 73.2754 16.4602 73.3607 16.2149H74.1447C74.0274 16.6362 73.7927 16.9802 73.4407 17.2469C73.0887 17.5082 72.6514 17.6389 72.1287 17.6389C71.7127 17.6389 71.3394 17.5456 71.0087 17.3589C70.6834 17.1722 70.4274 16.9082 70.2407 16.5669C70.054 16.2202 69.9607 15.8202 69.9607 15.3669C69.9607 14.9136 70.0514 14.5162 70.2327 14.1749C70.414 13.8336 70.6674 13.5722 70.9927 13.3909C71.3234 13.2042 71.702 13.1109 72.1287 13.1109C72.5447 13.1109 72.9127 13.2016 73.2327 13.3829C73.5527 13.5642 73.798 13.8149 73.9687 14.1349C74.1447 14.4496 74.2327 14.8069 74.2327 15.2069ZM73.4807 15.0549C73.4807 14.7776 73.4194 14.5402 73.2967 14.3429C73.174 14.1402 73.006 13.9882 72.7927 13.8869C72.5847 13.7802 72.3527 13.7269 72.0967 13.7269C71.7287 13.7269 71.414 13.8442 71.1527 14.0789C70.8967 14.3136 70.75 14.6389 70.7127 15.0549H73.4807ZM74.9216 15.3589C74.9216 14.9109 75.0123 14.5189 75.1936 14.1829C75.375 13.8416 75.623 13.5776 75.9376 13.3909C76.2576 13.2042 76.615 13.1109 77.0096 13.1109C77.351 13.1109 77.6683 13.1909 77.9616 13.3509C78.255 13.5056 78.479 13.7109 78.6336 13.9669V11.6469H79.3696V17.5669H78.6336V16.7429C78.4896 17.0042 78.2763 17.2202 77.9936 17.3909C77.711 17.5562 77.3803 17.6389 77.0016 17.6389C76.6123 17.6389 76.2576 17.5429 75.9376 17.3509C75.623 17.1589 75.375 16.8896 75.1936 16.5429C75.0123 16.1962 74.9216 15.8016 74.9216 15.3589ZM78.6336 15.3669C78.6336 15.0362 78.567 14.7482 78.4336 14.5029C78.3003 14.2576 78.119 14.0709 77.8896 13.9429C77.6656 13.8096 77.4176 13.7429 77.1456 13.7429C76.8736 13.7429 76.6256 13.8069 76.4016 13.9349C76.1776 14.0629 75.999 14.2496 75.8656 14.4949C75.7323 14.7402 75.6656 15.0282 75.6656 15.3589C75.6656 15.6949 75.7323 15.9882 75.8656 16.2389C75.999 16.4842 76.1776 16.6736 76.4016 16.8069C76.6256 16.9349 76.8736 16.9989 77.1456 16.9989C77.4176 16.9989 77.6656 16.9349 77.8896 16.8069C78.119 16.6736 78.3003 16.4842 78.4336 16.2389C78.567 15.9882 78.6336 15.6976 78.6336 15.3669ZM83.4607 13.9989C83.61 13.7376 83.8287 13.5242 84.1167 13.3589C84.4047 13.1936 84.7327 13.1109 85.1007 13.1109C85.4954 13.1109 85.85 13.2042 86.1647 13.3909C86.4794 13.5776 86.7274 13.8416 86.9087 14.1829C87.09 14.5189 87.1807 14.9109 87.1807 15.3589C87.1807 15.8016 87.09 16.1962 86.9087 16.5429C86.7274 16.8896 86.4767 17.1589 86.1567 17.3509C85.842 17.5429 85.49 17.6389 85.1007 17.6389C84.722 17.6389 84.3887 17.5562 84.1007 17.3909C83.818 17.2256 83.6047 17.0149 83.4607 16.7589V17.5669H82.7327V11.6469H83.4607V13.9989ZM86.4367 15.3589C86.4367 15.0282 86.37 14.7402 86.2367 14.4949C86.1034 14.2496 85.922 14.0629 85.6927 13.9349C85.4687 13.8069 85.2207 13.7429 84.9487 13.7429C84.682 13.7429 84.434 13.8096 84.2047 13.9429C83.9807 14.0709 83.7994 14.2602 83.6607 14.5109C83.5274 14.7562 83.4607 15.0416 83.4607 15.3669C83.4607 15.6976 83.5274 15.9882 83.6607 16.2389C83.7994 16.4842 83.9807 16.6736 84.2047 16.8069C84.434 16.9349 84.682 16.9989 84.9487 16.9989C85.2207 16.9989 85.4687 16.9349 85.6927 16.8069C85.922 16.6736 86.1034 16.4842 86.2367 16.2389C86.37 15.9882 86.4367 15.6949 86.4367 15.3589ZM91.9149 13.1829L89.2749 19.6309H88.5229L89.3869 17.5189L87.6189 13.1829H88.4269L89.8029 16.7349L91.1629 13.1829H91.9149Z" fill="#969FBC"/>
<path d="M50.5755 32.6509C50.0235 32.6509 49.5275 32.5549 49.0875 32.3629C48.6555 32.1629 48.3155 31.8909 48.0675 31.5469C47.8195 31.1949 47.6915 30.7909 47.6835 30.3349H48.8475C48.8875 30.7269 49.0475 31.0589 49.3275 31.3309C49.6155 31.5949 50.0315 31.7269 50.5755 31.7269C51.0955 31.7269 51.5035 31.5989 51.7995 31.3429C52.1035 31.0789 52.2555 30.7429 52.2555 30.3349C52.2555 30.0149 52.1675 29.7549 51.9915 29.5549C51.8155 29.3549 51.5955 29.2029 51.3315 29.0989C51.0675 28.9949 50.7115 28.8829 50.2635 28.7629C49.7115 28.6189 49.2675 28.4749 48.9315 28.3309C48.6035 28.1869 48.3195 27.9629 48.0795 27.6589C47.8475 27.3469 47.7315 26.9309 47.7315 26.4109C47.7315 25.9549 47.8475 25.5509 48.0795 25.1989C48.3115 24.8469 48.6355 24.5749 49.0515 24.3829C49.4755 24.1909 49.9595 24.0949 50.5035 24.0949C51.2875 24.0949 51.9275 24.2909 52.4235 24.6829C52.9275 25.0749 53.2115 25.5949 53.2755 26.2429H52.0755C52.0355 25.9229 51.8675 25.6429 51.5715 25.4029C51.2755 25.1549 50.8835 25.0309 50.3955 25.0309C49.9395 25.0309 49.5675 25.1509 49.2795 25.3909C48.9915 25.6229 48.8475 25.9509 48.8475 26.3749C48.8475 26.6789 48.9315 26.9269 49.0995 27.1189C49.2755 27.3109 49.4875 27.4589 49.7355 27.5629C49.9915 27.6589 50.3475 27.7709 50.8035 27.8989C51.3555 28.0509 51.7995 28.2029 52.1355 28.3549C52.4715 28.4989 52.7595 28.7269 52.9995 29.0389C53.2395 29.3429 53.3595 29.7589 53.3595 30.2869C53.3595 30.6949 53.2515 31.0789 53.0355 31.4389C52.8195 31.7989 52.4995 32.0909 52.0755 32.3149C51.6515 32.5389 51.1515 32.6509 50.5755 32.6509ZM60.7985 25.9909V32.5669H59.7065V31.5949C59.4985 31.9309 59.2065 32.1949 58.8305 32.3869C58.4625 32.5709 58.0545 32.6629 57.6065 32.6629C57.0945 32.6629 56.6345 32.5589 56.2265 32.3509C55.8185 32.1349 55.4945 31.8149 55.2545 31.3909C55.0225 30.9669 54.9065 30.4509 54.9065 29.8429V25.9909H55.9865V29.6989C55.9865 30.3469 56.1505 30.8469 56.4785 31.1989C56.8065 31.5429 57.2545 31.7149 57.8225 31.7149C58.4065 31.7149 58.8665 31.5349 59.2025 31.1749C59.5385 30.8149 59.7065 30.2909 59.7065 29.6029V25.9909H60.7985ZM63.7343 27.2029C63.9503 26.8269 64.2703 26.5149 64.6943 26.2669C65.1263 26.0109 65.6263 25.8829 66.1943 25.8829C66.7783 25.8829 67.3063 26.0229 67.7783 26.3029C68.2583 26.5829 68.6343 26.9789 68.9063 27.4909C69.1783 27.9949 69.3143 28.5829 69.3143 29.2549C69.3143 29.9189 69.1783 30.5109 68.9063 31.0309C68.6343 31.5509 68.2583 31.9549 67.7783 32.2429C67.3063 32.5309 66.7783 32.6749 66.1943 32.6749C65.6343 32.6749 65.1383 32.5509 64.7063 32.3029C64.2823 32.0469 63.9583 31.7309 63.7343 31.3549V35.6869H62.6423V25.9909H63.7343V27.2029ZM68.1983 29.2549C68.1983 28.7589 68.0983 28.3269 67.8983 27.9589C67.6983 27.5909 67.4263 27.3109 67.0823 27.1189C66.7463 26.9269 66.3743 26.8309 65.9663 26.8309C65.5663 26.8309 65.1943 26.9309 64.8503 27.1309C64.5143 27.3229 64.2423 27.6069 64.0343 27.9829C63.8343 28.3509 63.7343 28.7789 63.7343 29.2669C63.7343 29.7629 63.8343 30.1989 64.0343 30.5749C64.2423 30.9429 64.5143 31.2269 64.8503 31.4269C65.1943 31.6189 65.5663 31.7149 65.9663 31.7149C66.3743 31.7149 66.7463 31.6189 67.0823 31.4269C67.4263 31.2269 67.6983 30.9429 67.8983 30.5749C68.0983 30.1989 68.1983 29.7589 68.1983 29.2549ZM76.7516 29.0269C76.7516 29.2349 76.7396 29.4549 76.7156 29.6869H71.4596C71.4996 30.3349 71.7196 30.8429 72.1196 31.2109C72.5276 31.5709 73.0196 31.7509 73.5956 31.7509C74.0676 31.7509 74.4596 31.6429 74.7716 31.4269C75.0916 31.2029 75.3156 30.9069 75.4436 30.5389H76.6196C76.4436 31.1709 76.0916 31.6869 75.5636 32.0869C75.0356 32.4789 74.3796 32.6749 73.5956 32.6749C72.9716 32.6749 72.4116 32.5349 71.9156 32.2549C71.4276 31.9749 71.0436 31.5789 70.7636 31.0669C70.4836 30.5469 70.3436 29.9469 70.3436 29.2669C70.3436 28.5869 70.4796 27.9909 70.7516 27.4789C71.0236 26.9669 71.4036 26.5749 71.8916 26.3029C72.3876 26.0229 72.9556 25.8829 73.5956 25.8829C74.2196 25.8829 74.7716 26.0189 75.2516 26.2909C75.7316 26.5629 76.0996 26.9389 76.3556 27.4189C76.6196 27.8909 76.7516 28.4269 76.7516 29.0269ZM75.6236 28.7989C75.6236 28.3829 75.5316 28.0269 75.3476 27.7309C75.1636 27.4269 74.9116 27.1989 74.5916 27.0469C74.2796 26.8869 73.9316 26.8069 73.5476 26.8069C72.9956 26.8069 72.5236 26.9829 72.1316 27.3349C71.7476 27.6869 71.5276 28.1749 71.4716 28.7989H75.6236ZM79.285 27.0589C79.477 26.6829 79.749 26.3909 80.101 26.1829C80.461 25.9749 80.897 25.8709 81.409 25.8709V26.9989H81.121C79.897 26.9989 79.285 27.6629 79.285 28.9909V32.5669H78.193V25.9909H79.285V27.0589ZM91.4608 26.6509C91.4608 27.3469 91.2208 27.9269 90.7408 28.3909C90.2688 28.8469 89.5448 29.0749 88.5688 29.0749H86.9608V32.5669H85.8688V24.2029H88.5688C89.5128 24.2029 90.2288 24.4309 90.7168 24.8869C91.2128 25.3429 91.4608 25.9309 91.4608 26.6509ZM88.5688 28.1749C89.1768 28.1749 89.6248 28.0429 89.9128 27.7789C90.2008 27.5149 90.3448 27.1389 90.3448 26.6509C90.3448 25.6189 89.7528 25.1029 88.5688 25.1029H86.9608V28.1749H88.5688ZM93.91 27.0589C94.102 26.6829 94.374 26.3909 94.726 26.1829C95.086 25.9749 95.522 25.8709 96.034 25.8709V26.9989H95.746C94.522 26.9989 93.91 27.6629 93.91 28.9909V32.5669H92.818V25.9909H93.91V27.0589ZM100.163 32.6749C99.5466 32.6749 98.9866 32.5349 98.4826 32.2549C97.9866 31.9749 97.5946 31.5789 97.3066 31.0669C97.0266 30.5469 96.8866 29.9469 96.8866 29.2669C96.8866 28.5949 97.0306 28.0029 97.3186 27.4909C97.6146 26.9709 98.0146 26.5749 98.5186 26.3029C99.0226 26.0229 99.5866 25.8829 100.211 25.8829C100.835 25.8829 101.399 26.0229 101.903 26.3029C102.407 26.5749 102.803 26.9669 103.091 27.4789C103.387 27.9909 103.535 28.5869 103.535 29.2669C103.535 29.9469 103.383 30.5469 103.079 31.0669C102.783 31.5789 102.379 31.9749 101.867 32.2549C101.355 32.5349 100.787 32.6749 100.163 32.6749ZM100.163 31.7149C100.555 31.7149 100.923 31.6229 101.267 31.4389C101.611 31.2549 101.887 30.9789 102.095 30.6109C102.311 30.2429 102.419 29.7949 102.419 29.2669C102.419 28.7389 102.315 28.2909 102.107 27.9229C101.899 27.5549 101.627 27.2829 101.291 27.1069C100.955 26.9229 100.591 26.8309 100.199 26.8309C99.7986 26.8309 99.4306 26.9229 99.0946 27.1069C98.7666 27.2829 98.5026 27.5549 98.3026 27.9229C98.1026 28.2909 98.0026 28.7389 98.0026 29.2669C98.0026 29.8029 98.0986 30.2549 98.2906 30.6229C98.4906 30.9909 98.7546 31.2669 99.0826 31.4509C99.4106 31.6269 99.7706 31.7149 100.163 31.7149ZM106.302 26.8909V30.7669C106.302 31.0869 106.37 31.3149 106.506 31.4509C106.642 31.5789 106.878 31.6429 107.214 31.6429H108.018V32.5669H107.034C106.426 32.5669 105.97 32.4269 105.666 32.1469C105.362 31.8669 105.21 31.4069 105.21 30.7669V26.8909H104.358V25.9909H105.21V24.3349H106.302V25.9909H108.018V26.8909H106.302ZM112.209 32.6749C111.593 32.6749 111.033 32.5349 110.529 32.2549C110.033 31.9749 109.641 31.5789 109.353 31.0669C109.073 30.5469 108.933 29.9469 108.933 29.2669C108.933 28.5949 109.077 28.0029 109.365 27.4909C109.661 26.9709 110.061 26.5749 110.565 26.3029C111.069 26.0229 111.633 25.8829 112.257 25.8829C112.881 25.8829 113.445 26.0229 113.949 26.3029C114.453 26.5749 114.849 26.9669 115.137 27.4789C115.433 27.9909 115.581 28.5869 115.581 29.2669C115.581 29.9469 115.429 30.5469 115.125 31.0669C114.829 31.5789 114.425 31.9749 113.913 32.2549C113.401 32.5349 112.833 32.6749 112.209 32.6749ZM112.209 31.7149C112.601 31.7149 112.969 31.6229 113.313 31.4389C113.657 31.2549 113.933 30.9789 114.141 30.6109C114.357 30.2429 114.465 29.7949 114.465 29.2669C114.465 28.7389 114.361 28.2909 114.153 27.9229C113.945 27.5549 113.673 27.2829 113.337 27.1069C113.001 26.9229 112.637 26.8309 112.245 26.8309C111.845 26.8309 111.477 26.9229 111.141 27.1069C110.813 27.2829 110.549 27.5549 110.349 27.9229C110.149 28.2909 110.049 28.7389 110.049 29.2669C110.049 29.8029 110.145 30.2549 110.337 30.6229C110.537 30.9909 110.801 31.2669 111.129 31.4509C111.457 31.6269 111.817 31.7149 112.209 31.7149ZM116.609 29.2669C116.609 28.5869 116.745 27.9949 117.017 27.4909C117.289 26.9789 117.665 26.5829 118.145 26.3029C118.633 26.0229 119.189 25.8829 119.813 25.8829C120.621 25.8829 121.285 26.0789 121.805 26.4709C122.333 26.8629 122.681 27.4069 122.849 28.1029H121.673C121.561 27.7029 121.341 27.3869 121.013 27.1549C120.693 26.9229 120.293 26.8069 119.813 26.8069C119.189 26.8069 118.685 27.0229 118.301 27.4549C117.917 27.8789 117.725 28.4829 117.725 29.2669C117.725 30.0589 117.917 30.6709 118.301 31.1029C118.685 31.5349 119.189 31.7509 119.813 31.7509C120.293 31.7509 120.693 31.6389 121.013 31.4149C121.333 31.1909 121.553 30.8709 121.673 30.4549H122.849C122.673 31.1269 122.321 31.6669 121.793 32.0749C121.265 32.4749 120.605 32.6749 119.813 32.6749C119.189 32.6749 118.633 32.5349 118.145 32.2549C117.665 31.9749 117.289 31.5789 117.017 31.0669C116.745 30.5549 116.609 29.9549 116.609 29.2669ZM127.174 32.6749C126.558 32.6749 125.998 32.5349 125.494 32.2549C124.998 31.9749 124.606 31.5789 124.318 31.0669C124.038 30.5469 123.898 29.9469 123.898 29.2669C123.898 28.5949 124.042 28.0029 124.33 27.4909C124.626 26.9709 125.026 26.5749 125.53 26.3029C126.034 26.0229 126.598 25.8829 127.222 25.8829C127.846 25.8829 128.41 26.0229 128.914 26.3029C129.418 26.5749 129.814 26.9669 130.102 27.4789C130.398 27.9909 130.546 28.5869 130.546 29.2669C130.546 29.9469 130.394 30.5469 130.09 31.0669C129.794 31.5789 129.39 31.9749 128.878 32.2549C128.366 32.5349 127.798 32.6749 127.174 32.6749ZM127.174 31.7149C127.566 31.7149 127.934 31.6229 128.278 31.4389C128.622 31.2549 128.898 30.9789 129.106 30.6109C129.322 30.2429 129.43 29.7949 129.43 29.2669C129.43 28.7389 129.326 28.2909 129.118 27.9229C128.91 27.5549 128.638 27.2829 128.302 27.1069C127.966 26.9229 127.602 26.8309 127.21 26.8309C126.81 26.8309 126.442 26.9229 126.106 27.1069C125.778 27.2829 125.514 27.5549 125.314 27.9229C125.114 28.2909 125.014 28.7389 125.014 29.2669C125.014 29.8029 125.11 30.2549 125.302 30.6229C125.502 30.9909 125.766 31.2669 126.094 31.4509C126.422 31.6269 126.782 31.7149 127.174 31.7149ZM133.074 23.6869V32.5669H131.982V23.6869H133.074Z" fill="white"/>
<rect x="0.5" y="0.5" width="150" height="43.1339" rx="4.5" stroke="white" stroke-opacity="0.2"/>
</svg>
