<svg aria-hidden="true" style="position: absolute; width: 0; height: 0; overflow: hidden;" version="1.1" xmlns="http://www.w3.org/2000/svg" xmlns:xlink="http://www.w3.org/1999/xlink">
<defs>
  <symbol id="copy" viewBox="0 0 25 24" fill="transparent" xmlns="http://www.w3.org/2000/svg">
    <path d="M16.2734 12.9V17.1C16.2734 20.6 14.8947 22 11.448 22H7.31195C3.86525 22 2.48657 20.6 2.48657 17.1V12.9C2.48657 9.4 3.86525 8 7.31195 8H11.448C14.8947 8 16.2734 9.4 16.2734 12.9Z" stroke="currentColor" stroke-width="1.5" stroke-linecap="round" stroke-linejoin="round"/>
    <path d="M22.1835 6.9V11.1C22.1835 14.6 20.8049 16 17.3582 16H16.2749V12.9C16.2749 9.4 14.8962 8 11.4495 8H8.39673V6.9C8.39673 3.4 9.77541 2 13.2221 2H17.3582C20.8049 2 22.1835 3.4 22.1835 6.9Z" stroke="currentColor" stroke-width="1.5" stroke-linecap="round" stroke-linejoin="round"/>
  </symbol>
  <symbol id="profile" viewBox="0 0 14 14" fill="none" xmlns="http://www.w3.org/2000/svg">
    <path d="M7.09308 6.34091C7.03475 6.33508 6.96475 6.33508 6.90058 6.34091C5.51225 6.29425 4.40975 5.15675 4.40975 3.75675C4.40975 2.32758 5.56475 1.16675 6.99975 1.16675C8.42892 1.16675 9.58975 2.32758 9.58975 3.75675C9.58392 5.15675 8.48141 6.29425 7.09308 6.34091Z" fill="currentColor" stroke="currentColor" stroke-width="0.875" stroke-linecap="round" stroke-linejoin="round"/>
    <path d="M4.17651 8.49325C2.76484 9.43825 4.17651 11.9174 4.17651 11.9174H10.0157C10.0157 11.9174 11.4273 9.43242 10.0157 8.49325C8.41734 7.42575 5.78651 7.42575 4.17651 8.49325Z" fill="#4F5667" stroke="#4F5667" stroke-width="0.875" stroke-linecap="round" stroke-linejoin="round"/>
  </symbol>
  <symbol id="close" viewBox="0 0 14 14" fill="currentColor" xmlns="http://www.w3.org/2000/svg">
    <path fill-rule="evenodd" clip-rule="evenodd" d="M12.5565 2.75398C12.9471 2.36346 12.9471 1.73029 12.5565 1.33977C12.166 0.949244 11.5329 0.949244 11.1423 1.33977L6.89932 5.58279L2.65633 1.3398C2.2658 0.949272 1.63264 0.949272 1.24211 1.3398C0.851588 1.73032 0.851588 2.36349 1.24211 2.75401L5.4851 6.997L1.24284 11.2393C0.852318 11.6298 0.852318 12.263 1.24284 12.6535C1.63337 13.044 2.26653 13.044 2.65706 12.6535L6.89932 8.41121L11.1416 12.6535C11.5321 13.044 12.1653 13.044 12.5558 12.6535C12.9463 12.263 12.9463 11.6298 12.5558 11.2393L8.31353 6.997L12.5565 2.75398Z" fill="currentColor"/>
  </symbol>
  <symbol id="check_small" viewBox="0 0 12 12" fill="currentColor" xmlns="http://www.w3.org/2000/svg">
    <path fill-rule="evenodd" clip-rule="evenodd" d="M4.82406 10.3281L1.43238 7.98977C0.977683 7.67629 0.863209 7.05356 1.17669 6.59886C1.49018 6.14417 2.11291 6.02969 2.5676 6.34318L4.50412 7.67829L9.25274 2.33867C9.61976 1.92597 10.2518 1.88894 10.6645 2.25596C11.0772 2.62297 11.1143 3.25506 10.7472 3.66775L4.82406 10.3281Z" fill="currentColor"/>
  </symbol>
  <symbol id="close_small" viewBox="0 0 9 9" fill="currentColor" xmlns="http://www.w3.org/2000/svg">
    <path fill-rule="evenodd" clip-rule="evenodd" d="M8.30157 1.99586C8.55262 1.74481 8.55262 1.33778 8.30157 1.08673C8.05052 0.835675 7.64348 0.835675 7.39243 1.08673L4.66341 3.81575L1.93727 1.08961C1.68622 0.838562 1.27918 0.838562 1.02813 1.08961C0.777081 1.34066 0.777081 1.7477 1.02813 1.99875L3.75427 4.72489L1.02847 7.45069C0.777421 7.70174 0.777421 8.10878 1.02847 8.35983C1.27952 8.61088 1.68656 8.61088 1.93761 8.35983L4.66341 5.63403L7.39209 8.36271C7.64315 8.61376 8.05018 8.61376 8.30123 8.36271C8.55228 8.11166 8.55228 7.70462 8.30123 7.45357L5.57255 4.72489L8.30157 1.99586Z"/>
  </symbol>
  <symbol id="warning" viewBox="0 0 24 24" fill="none" xmlns="http://www.w3.org/2000/svg">
    <path d="M12 7.75V13" stroke="#FF6C00" stroke-width="1.5" stroke-linecap="round" stroke-linejoin="round"/>
    <path d="M21.08 8.58003V15.42C21.08 16.54 20.4799 17.58 19.5099 18.15L13.5699 21.58C12.5999 22.14 11.3999 22.14 10.4199 21.58L4.47992 18.15C3.50992 17.59 2.90991 16.55 2.90991 15.42V8.58003C2.90991 7.46003 3.50992 6.41999 4.47992 5.84999L10.4199 2.42C11.3899 1.86 12.5899 1.86 13.5699 2.42L19.5099 5.84999C20.4799 6.41999 21.08 7.45003 21.08 8.58003Z" stroke="currentColor" stroke-width="1.5" stroke-linecap="round" stroke-linejoin="round"/>
    <path d="M12 16.2V16.2999" stroke="#FF6C00" stroke-width="2" stroke-linecap="round" stroke-linejoin="round"/>
  </symbol>
  <symbol id="telegram" viewBox="0 0 24 24" fill="none" xmlns="http://www.w3.org/2000/svg">
    <path d="M24 12C24 15.1826 22.7357 18.2348 20.4853 20.4853C18.2348 22.7357 15.1826 24 12 24C8.8174 24 5.76516 22.7357 3.51472 20.4853C1.26428 18.2348 0 15.1826 0 12C0 8.8174 1.26428 5.76516 3.51472 3.51472C5.76516 1.26428 8.8174 0 12 0C15.1826 0 18.2348 1.26428 20.4853 3.51472C22.7357 5.76516 24 8.8174 24 12ZM12.4305 8.859C11.2635 9.345 8.9295 10.35 5.4315 11.874C4.8645 12.099 4.566 12.321 4.539 12.537C4.494 12.9015 4.9515 13.0455 5.574 13.242L5.8365 13.3245C6.4485 13.524 7.2735 13.7565 7.701 13.7655C8.091 13.7745 8.5245 13.6155 9.003 13.2855C12.2715 11.079 13.959 9.9645 14.064 9.9405C14.139 9.9225 14.244 9.9015 14.313 9.9645C14.3835 10.026 14.376 10.1445 14.3685 10.176C14.3235 10.3695 12.528 12.0375 11.5995 12.9015C11.31 13.1715 11.1045 13.362 11.0625 13.4055C10.97 13.5 10.876 13.593 10.7805 13.6845C10.2105 14.2335 9.7845 14.6445 10.803 15.3165C11.2935 15.6405 11.6865 15.906 12.078 16.173C12.504 16.464 12.93 16.7535 13.482 17.1165C13.6215 17.2065 13.7565 17.304 13.887 17.397C14.3835 17.751 14.832 18.069 15.3825 18.018C15.7035 17.988 16.035 17.688 16.203 16.788C16.6005 14.6625 17.382 10.059 17.562 8.1615C17.573 8.00376 17.5664 7.84529 17.5425 7.689C17.5284 7.56288 17.4673 7.44669 17.3715 7.3635C17.235 7.26928 17.0723 7.22047 16.9065 7.224C16.4565 7.2315 15.762 7.473 12.4305 8.859Z" fill="currentColor"/>
    <defs>
    <clipPath id="clip0_7239_9826">
    <rect width="24" height="24" fill="currentColor"/>
    </clipPath>
    </defs>
  </symbol>
  <symbol id="discord" viewBox="0 0 24 24" fill="none" xmlns="http://www.w3.org/2000/svg">
    <path d="M9.87678 4.98866C9.70238 4.50386 9.52638 4.01506 9.52318 4.00866C9.43918 3.82066 9.24478 3.70226 9.03998 3.72306C8.91038 3.73346 5.84398 3.99746 3.87918 5.57746C2.85198 6.52626 0.800781 12.0735 0.800781 16.8695C0.800781 16.9543 0.822381 17.0367 0.864781 17.1103C2.28158 19.5983 6.14398 20.2495 7.02398 20.2775C7.02958 20.2783 7.03438 20.2783 7.03918 20.2783C7.19438 20.2783 7.33998 20.2039 7.43278 20.0783L8.38478 18.7887C6.81198 18.5495 6.52798 18.2375 6.46158 18.1887C6.10638 17.9271 5.84398 17.5607 6.16238 17.0983C6.40718 16.7391 6.92078 16.6207 7.31438 16.8231C7.71758 17.0111 8.79678 17.6159 12.0008 17.5999C15.1824 17.5903 16.5792 16.9239 16.5992 16.9095C17.1336 16.6687 17.5504 16.7679 17.8104 17.1247C18.12 17.6103 17.8992 17.9391 17.5456 18.1999C17.4792 18.2487 17.3184 18.3855 15.6288 18.7855L16.5688 20.0775C16.6608 20.2039 16.8072 20.2775 16.9624 20.2775C16.968 20.2775 16.9728 20.2775 16.9776 20.2767C17.8584 20.2487 21.7208 19.5975 23.1368 17.1095C23.1792 17.0359 23.2008 16.9535 23.2008 16.8687C23.2008 12.0735 21.1496 6.52626 20.0968 5.55666C18.1576 3.99826 15.0912 3.73426 14.9616 3.72306C14.7568 3.70546 14.5624 3.82146 14.4784 4.00866C14.4752 4.01506 14.304 4.51186 14.1384 4.99106C14.1384 4.99106 12.8336 4.79986 12.0008 4.79986C11.168 4.79986 9.87678 4.98866 9.87678 4.98866ZM8.80078 15.1999C7.91678 15.1999 7.20078 14.1335 7.20078 12.8167C7.20078 11.4999 7.91678 10.4335 8.80078 10.4335C9.68798 10.3015 10.3816 11.4999 10.4008 12.8167C10.4008 14.1335 9.68478 15.1999 8.80078 15.1999ZM15.2008 15.1999C14.3168 15.1999 13.6008 14.1263 13.6008 12.8023C13.6008 11.4783 14.3168 10.4047 15.2008 10.4047C16.0848 10.4047 16.8008 11.4783 16.8008 12.8023C16.8008 14.1263 16.0848 15.1999 15.2008 15.1999Z" fill="currentColor"/>
  </symbol>
  <symbol id="twitter" viewBox="0 0 24 24" fill="currentColor" xmlns="http://www.w3.org/2000/svg">
    <path d="M7.539 22.4991C16.596 22.4991 21.5505 14.9946 21.5505 8.49809C21.5505 8.28809 21.5505 8.07509 21.5415 7.86509C22.5061 7.16682 23.3386 6.30231 24 5.31209C23.099 5.70936 22.1441 5.9712 21.1665 6.08909C22.1963 5.47354 22.9676 4.50504 23.337 3.36359C22.3695 3.93677 21.3105 4.33915 20.2065 4.55309C19.4643 3.76262 18.4821 3.23896 17.4121 3.06322C16.3421 2.88748 15.2441 3.06947 14.288 3.58099C13.3319 4.09252 12.5712 4.90503 12.1237 5.89268C11.6761 6.88032 11.5668 7.98799 11.8125 9.04409C9.85461 8.94591 7.93922 8.43729 6.19056 7.5512C4.4419 6.66511 2.89903 5.42135 1.662 3.90059C1.03401 4.98521 0.842361 6.26819 1.12597 7.48899C1.40958 8.70978 2.14718 9.77688 3.189 10.4736C2.40831 10.4471 1.64478 10.2374 0.96 9.86159V9.92909C0.961346 11.0653 1.35496 12.1662 2.07431 13.0457C2.79366 13.9252 3.79462 14.5294 4.908 14.7561C4.48539 14.8725 4.04884 14.9305 3.6105 14.9286C3.30148 14.9295 2.99307 14.9009 2.6895 14.8431C3.00418 15.8212 3.61691 16.6763 4.44187 17.2888C5.26683 17.9013 6.2627 18.2404 7.29 18.2586C5.54483 19.6293 3.3891 20.3727 1.17 20.3691C0.778981 20.3707 0.388235 20.3482 0 20.3016C2.25227 21.7375 4.86795 22.4999 7.539 22.4991Z" fill="currentColor"/>
  </symbol>
  <symbol id="triangle" viewBox="0 0 8 7" fill="currentColor" xmlns="http://www.w3.org/2000/svg">
    <path d="M3.13397 6.5C3.51887 7.16667 4.48113 7.16667 4.86603 6.5L7.4641 2C7.849 1.33333 7.36788 0.5 6.59808 0.5H1.40192C0.632124 0.5 0.150998 1.33333 0.535898 2L3.13397 6.5Z" fill="currentColor" />
  </symbol>
  <symbol id="arrow" fill="none" xmlns="http://www.w3.org/2000/svg">
    <path fill-rule="evenodd" clip-rule="evenodd" d="M9.80113 1.22462L5.48011 5.78989C5.21495 6.07004 4.78505 6.07004 4.51989 5.78989L0.19887 1.22462C-0.066289 0.944468 -0.066289 0.490259 0.19887 0.210111C0.464029 -0.0700374 0.893937 -0.0700374 1.1591 0.210111L5 4.26813L8.8409 0.210111C9.10606 -0.070037 9.53597 -0.070037 9.80113 0.210111C10.0663 0.490259 10.0663 0.944468 9.80113 1.22462Z" fill="currentColor"/>
  </symbol>
  <symbol id="clock" xmlns="http://www.w3.org/2000/svg" width="12" height="12" viewBox="0 0 12 12" fill="none">
    <path d="M7.8375 8.4125L8.4 7.85L6.4125 5.85V3.3375H5.6625V6.15L7.8375 8.4125ZM6 11C5.31667 11 4.67083 10.8688 4.0625 10.6062C3.45417 10.3438 2.92292 9.98542 2.46875 9.53125C2.01458 9.07708 1.65625 8.54583 1.39375 7.9375C1.13125 7.32917 1 6.68333 1 6C1 5.31667 1.13125 4.67083 1.39375 4.0625C1.65625 3.45417 2.01458 2.92292 2.46875 2.46875C2.92292 2.01458 3.45417 1.65625 4.0625 1.39375C4.67083 1.13125 5.31667 1 6 1C6.68333 1 7.32917 1.13125 7.9375 1.39375C8.54583 1.65625 9.07708 2.01458 9.53125 2.46875C9.98542 2.92292 10.3438 3.45417 10.6062 4.0625C10.8688 4.67083 11 5.31667 11 6C11 6.68333 10.8688 7.32917 10.6062 7.9375C10.3438 8.54583 9.98542 9.07708 9.53125 9.53125C9.07708 9.98542 8.54583 10.3438 7.9375 10.6062C7.32917 10.8688 6.68333 11 6 11ZM6 10.25C7.16667 10.25 8.16667 9.83333 9 9C9.83333 8.16667 10.25 7.16667 10.25 6C10.25 4.83333 9.83333 3.83333 9 3C8.16667 2.16667 7.16667 1.75 6 1.75C4.83333 1.75 3.83333 2.16667 3 3C2.16667 3.83333 1.75 4.83333 1.75 6C1.75 7.16667 2.16667 8.16667 3 9C3.83333 9.83333 4.83333 10.25 6 10.25Z" fill="#5B616F"/>
  </symbol>
</defs>
</svg>
